<?xml version="1.0" encoding="UTF-8"?>
<!DOCTYPE svg PUBLIC "-//W3C//DTD SVG 1.1//EN" "http://www.w3.org/Graphics/SVG/1.1/DTD/svg11.dtd">
<!-- Creator: CorelDRAW -->
<svg xmlns="http://www.w3.org/2000/svg" xml:space="preserve" width="25mm" height="25mm" version="1.1" style="shape-rendering:geometricPrecision; text-rendering:geometricPrecision; image-rendering:optimizeQuality; fill-rule:evenodd; clip-rule:evenodd"
viewBox="0 0 2500 2500"
 xmlns:xlink="http://www.w3.org/1999/xlink"
 xmlns:xodm="http://www.corel.com/coreldraw/odm/2003">
 <defs>
  <style type="text/css">
   <![CDATA[
    .fil0 {fill:#FEFEFE}
    .fil3 {fill:#618CA3}
    .fil4 {fill:#946611}
    .fil1 {fill:#AD3818}
    .fil2 {fill:#BCD1AC}
   ]]>
  </style>
 </defs>
 <g id="Слой_x0020_1">
  <metadata id="CorelCorpID_0Corel-Layer"/>
  <polygon class="fil0" points="254.86,1156.93 1174.74,237.06 1334.99,237.06 2254.86,1156.94 2254.86,1317.18 1334.99,2237.06 1174.74,2237.06 254.86,1317.19 "/>
  <g id="_1630894802656">
   <rect class="fil1" transform="matrix(0.124693 -0.124693 0.124693 0.124693 792.186 726.677)" width="3710.52" height="3710.52" rx="317.08" ry="317.08"/>
   <rect class="fil2" transform="matrix(0.124693 -0.124693 0.124693 0.124693 792.186 1747.44)" width="3710.52" height="3710.52" rx="317.08" ry="317.08"/>
   <rect class="fil3" transform="matrix(-0.124693 -0.124693 0.124693 -0.124693 744.479 1699.74)" width="3710.52" height="3710.52" rx="317.08" ry="317.08"/>
   <rect class="fil4" transform="matrix(-0.124693 -0.124693 0.124693 -0.124693 1765.25 1699.74)" width="3710.52" height="3710.52" rx="317.08" ry="317.08"/>
   <g>
    <path class="fil0" d="M540.28 1190.73c8.5,0 101.09,-94.66 170.39,-42.82 5.63,4.21 10.14,9.21 13.38,15.53 31.62,61.7 -59.52,155.42 -100.03,199.47 -69.95,74.37 116,113.17 185.47,88.53 97.15,-34.46 176.15,-136.89 162.38,-243.28 -25.15,-194.09 -282.35,-261.19 -400.27,-110.27 -15.47,19.81 -40.86,52.68 -42.24,79.54 -0.3,5.96 3.11,13.3 10.92,13.3z"/>
    <path class="fil0" d="M515.53 1235.13c0,98.42 124.81,27.72 54.44,-22.13 -5.01,-3.55 -30.39,-16.99 -37.44,-16.99 -14.06,0 -17,24.07 -17,39.12z"/>
   </g>
   <g>
    <path class="fil0" d="M1213.84 617.79c0,64.91 39.86,76.15 46.98,102.8 -74.73,-17.62 -68.28,-68.13 -74.84,-79.94 -14.52,3.88 -117.87,193.41 -120.76,205.8l379.29 0c0,-122.5 -193.89,-185.56 -190.5,-336.76 -23.44,18.25 -40.17,84.04 -40.17,108.1z"/>
    <path class="fil0" d="M1141.76 574.32c34.22,-3.22 28.25,-2.72 47.63,-1.76 -8.43,-59.9 -8.88,-61.15 0.66,-87.76 1.68,-14.85 -48.29,49.32 -48.29,89.52z"/>
   </g>
   <g>
    <g>
     <path class="fil0" d="M1230.14 1959.29c28.84,-3.59 -14.12,-34.53 -6.8,-102.05 -17.25,4.6 -48.84,102.05 6.8,102.05z"/>
     <g>
      <path class="fil0" d="M1251.79 1746.59c-97.4,5.94 -264.15,45.9 -150.95,159.46 18.75,18.8 84.62,64.36 84.62,39.54 -1.18,-46.07 -0.76,-73.87 18.21,-117.86 7.61,-17.65 38.82,-68.93 51.52,-77.74 1.26,-1.01 2.49,-3.9 -3.4,-3.4z"/>
      <path class="fil0" d="M1255.27 1743.51c-5.95,-97.4 -45.9,-264.14 -159.46,-150.95 -18.81,18.75 -64.36,84.62 -39.54,84.62 46.07,-1.18 73.87,-0.75 117.85,18.21 17.65,7.61 68.94,38.82 77.74,51.52 1.01,1.27 3.9,2.5 3.41,-3.4z"/>
     </g>
    </g>
    <g>
     <path class="fil0" d="M1279.58 1535.6c-28.84,3.58 14.12,34.52 6.8,102.05 17.25,-4.61 48.85,-102.05 -6.8,-102.05z"/>
     <g>
      <path class="fil0" d="M1257.94 1748.29c97.4,-5.94 264.14,-45.89 150.94,-159.45 -18.74,-18.81 -84.61,-64.37 -84.61,-39.54 1.18,46.06 0.75,73.87 -18.21,117.85 -7.61,17.65 -38.82,68.93 -51.53,77.74 -1.26,1.01 -2.49,3.9 3.41,3.4z"/>
      <path class="fil0" d="M1254.46 1751.37c5.94,97.41 45.9,264.15 159.45,150.95 18.81,-18.75 64.37,-84.62 39.54,-84.62 -46.06,1.18 -73.86,0.76 -117.85,-18.21 -17.65,-7.61 -68.93,-38.82 -77.74,-51.52 -1.01,-1.26 -3.9,-2.49 -3.4,3.4z"/>
     </g>
    </g>
   </g>
   <g>
    <rect class="fil0" x="1623.23" y="1015.2" width="284.03" height="284.03"/>
    <polygon class="fil0" points="1623.23,1323.72 1907.26,1323.72 1907.26,1362.79 1764.9,1458.92 1623.23,1362.79 "/>
   </g>
  </g>
 </g>
</svg>
