<svg width="384" height="30" viewBox="0 0 384 30" fill="none" xmlns="http://www.w3.org/2000/svg">
    <path d="M0 0H23.0792V30H15.3862V3.74962H7.69223L7.69308 30H0V0Z" fill="white"/>
    <path fill-rule="evenodd" clip-rule="evenodd" d="M195.865 26.2502V29.9998H180.48V11.2497H195.864V22.4996H188.173V26.2502H195.865ZM192.018 18.7499V14.9994H188.173V18.7499H192.018Z" fill="white"/>
    <path d="M168.954 11.2338L176.633 11.2497V29.9998H172.787V22.4981H168.941L168.954 11.2338Z" fill="white"/>
    <path d="M165.095 22.4981H168.941V29.9975L157.402 29.9998V11.2497H165.094L165.095 22.4981Z" fill="white"/>
    <path d="M149.71 11.2497H153.556V29.9998H149.71V26.2492H145.865V29.9998H138.172V11.2497H145.864L145.865 22.4996H149.71V11.2497Z" fill="white"/>
    <path fill-rule="evenodd" clip-rule="evenodd" d="M134.326 26.2502V29.9998H118.94V11.2497H134.325V22.4996H126.633V26.2502H134.326ZM130.479 18.7499V14.9994H126.633V18.7499H130.479Z" fill="white"/>
    <path d="M103.555 18.7499H107.401V11.2497H115.093L115.094 29.9998H107.401V26.2492H103.555V29.8115H99.7089V26.2492H95.8637V29.9998H88.1705V11.2497H95.8627L95.8637 18.7499H99.7089V14.9994H103.555V18.7499Z" fill="white"/>
    <path fill-rule="evenodd" clip-rule="evenodd" d="M68.9402 29.9998V11.2497H84.3245V29.9998H68.9402ZM76.6332 26.2502H80.4784V14.9994H76.6332V26.2502Z" fill="white"/>
    <path fill-rule="evenodd" clip-rule="evenodd" d="M26.9254 30V11.2498H42.3097V30H26.9254ZM38.4637 26.2504H34.6185V14.9996H38.4637V26.2504Z" fill="white"/>
    <path fill-rule="evenodd" clip-rule="evenodd" d="M207.24 30V11.2498H222.624V30H207.24ZM214.933 26.2504H218.778V14.9996H214.933V26.2504Z" fill="white"/>
    <path d="M249.385 26.2504H245.539V22.4994H249.385V11.2504H245.539V18.7496H241.693V11.2498H234V30H241.693V26.2504H245.539V30H249.385V26.2504Z" fill="white"/>
    <path fill-rule="evenodd" clip-rule="evenodd" d="M384 30V26.2504H376.308V22.4998H383.999V11.2498H368.615V30H384ZM380.153 14.9996V18.75H376.308V14.9996H380.153Z" fill="white"/>
    <path d="M364.769 26.2504H357.077V14.9996H364.769V11.2498H349.384V30H364.769V26.2504Z" fill="white"/>
    <path fill-rule="evenodd" clip-rule="evenodd" d="M345.538 22.4998V11.2498H330.154V30H337.847V22.4998H345.538ZM341.692 14.9996V18.75H337.847V14.9996H341.692Z" fill="white"/>
    <path d="M322.462 26.2504H310.923V30H326.308V11.2504H322.462V18.7496H318.616V11.2498H310.922V22.4998L322.462 22.4994V26.2504Z" fill="white"/>
    <path d="M299.385 11.2498H291.692V30H299.385V26.2504H303.231V30H307.077V26.2504H303.231V22.4994H307.077V11.2504H303.231V18.7496H299.385V11.2498Z" fill="white"/>
    <path d="M287.846 11.2498H284V22.4998H280.155L280.154 11.2498H272.461V30H280.155V26.2494H284V30H287.846V11.2498Z" fill="white"/>
    <path fill-rule="evenodd" clip-rule="evenodd" d="M253.231 11.2498V30H268.615V11.2498H253.231ZM264.769 26.2504H260.924V14.9996H264.769V26.2504Z" fill="white"/>
    <path d="M65.094 11.2497V29.9998H61.2479V14.9994H57.4027V29.9998H46.1558V26.2502H50.0018V11.2497H65.094Z" fill="white"/>
</svg>
