<svg width="220" height="30" viewBox="0 0 220 30" fill="none" xmlns="http://www.w3.org/2000/svg">
    <path fill-rule="evenodd" clip-rule="evenodd" d="M7.45833 11.2427H18.6436L18.6458 3.74728H7.45745L7.45833 11.2427ZM7.45833 18.7373V29.9809H0V0H22.375V18.7373H7.45833ZM220 11.2427V29.9809H212.542V26.2252H208.814V29.9725H205.085V26.2252H208.814V22.4854H205.085V11.2427H208.814H220ZM208.814 18.7382V14.99H212.542V18.7382H208.814ZM193.911 11.2268H197.64V11.2427H201.356V29.9809H197.628V22.484H193.899L193.764 30L182.712 29.9809V11.2427H190.169L190.17 22.484H193.899L193.911 11.2268ZM156.611 11.2427V29.9809H152.882V26.2327H149.154V29.9809H141.696V11.2427H156.611ZM152.882 22.4854V14.99H149.154V22.4854H152.882ZM137.967 11.2427V22.4854H130.511V29.9809H123.052V11.2427H137.967ZM134.238 18.7382V14.99H130.511V18.7382H134.238ZM119.324 18.7373H115.596V29.9809H108.137V18.7373H104.409V11.2427H119.324V18.7373ZM93.2234 26.2336H100.68V29.9809H85.7651V11.2427H100.68V14.99H93.2234V26.2336ZM74.5911 11.2268L82.0363 11.2427V29.9809H78.3076V22.484H74.5789V29.9786L70.8502 29.9809H63.3918V11.2427H70.8493L70.8502 22.484H74.5789L74.5911 11.2268ZM59.6631 11.2427V14.99H52.2065V29.9809H44.7482V11.2427H59.6631ZM41.0195 26.2336V29.9809H26.1037V11.2427H41.0186V22.4854H33.562V26.2336H41.0195ZM37.2899 18.7382V14.99H33.562V18.7382H37.2899Z" fill="white"/>
    <path d="M171.526 11.2427H175.254V26.2336H178.983V30L160.34 29.9809V11.2427H167.797L167.798 26.2038H171.526V11.2427Z" fill="white"/>
</svg>
