<svg width="400" height="30" viewBox="0 0 400 30" fill="none" xmlns="http://www.w3.org/2000/svg">
<path d="M8 0H31.0792V30H23.3862V3.74962H15.6922L15.6931 30H8V0Z" fill="white"/>
<path fill-rule="evenodd" clip-rule="evenodd" d="M203.865 26.2502V29.9998H188.48V11.2497H203.864V22.4996H196.173V26.2502H203.865ZM200.018 18.7499V14.9994H196.173V18.7499H200.018Z" fill="white"/>
<path d="M176.954 11.2338L184.633 11.2497V29.9998H180.787V22.4981H176.941L176.954 11.2338Z" fill="white"/>
<path d="M173.095 22.4981H176.941V29.9975L165.402 29.9998V11.2497H173.094L173.095 22.4981Z" fill="white"/>
<path d="M157.71 11.2497H161.556V29.9998H157.71V26.2492H153.865V29.9998H146.172V11.2497H153.864L153.865 22.4996H157.71V11.2497Z" fill="white"/>
<path fill-rule="evenodd" clip-rule="evenodd" d="M142.326 26.2502V29.9998H126.94V11.2497H142.325V22.4996H134.633V26.2502H142.326ZM138.479 18.7499V14.9994H134.633V18.7499H138.479Z" fill="white"/>
<path d="M111.555 18.7499H115.401V11.2497H123.093L123.094 29.9998H115.401V26.2492H111.555V29.8115H107.709V26.2492H103.864V29.9998H96.1705V11.2497H103.863L103.864 18.7499H107.709V14.9994H111.555V18.7499Z" fill="white"/>
<path fill-rule="evenodd" clip-rule="evenodd" d="M76.9402 29.9998V11.2497H92.3245V29.9998H76.9402ZM84.6332 26.2502H88.4784V14.9994H84.6332V26.2502Z" fill="white"/>
<path fill-rule="evenodd" clip-rule="evenodd" d="M34.9254 30V11.2498H50.3097V30H34.9254ZM46.4637 26.2504H42.6185V14.9996H46.4637V26.2504Z" fill="white"/>
<path fill-rule="evenodd" clip-rule="evenodd" d="M215.24 30V11.2498H230.624V30H215.24ZM222.933 26.2504H226.778V14.9996H222.933V26.2504Z" fill="white"/>
<path d="M257.385 26.2504H253.539V22.4994H257.385V11.2504H253.539V18.7496H249.693V11.2498H242V30H249.693V26.2504H253.539V30H257.385V26.2504Z" fill="white"/>
<path fill-rule="evenodd" clip-rule="evenodd" d="M392 30V26.2504H384.308V22.4998H391.999V11.2498H376.615V30H392ZM388.153 14.9996V18.75H384.308V14.9996H388.153Z" fill="white"/>
<path d="M372.769 26.2504H365.077V14.9996H372.769V11.2498H357.384V30H372.769V26.2504Z" fill="white"/>
<path fill-rule="evenodd" clip-rule="evenodd" d="M353.538 22.4998V11.2498H338.154V30H345.847V22.4998H353.538ZM349.692 14.9996V18.75H345.847V14.9996H349.692Z" fill="white"/>
<path d="M330.462 26.2504H318.923V30H334.308V11.2504H330.462V18.7496H326.616V11.2498H318.922V22.4998L330.462 22.4994V26.2504Z" fill="white"/>
<path d="M307.385 11.2498H299.692V30H307.385V26.2504H311.231V30H315.077V26.2504H311.231V22.4994H315.077V11.2504H311.231V18.7496H307.385V11.2498Z" fill="white"/>
<path d="M295.846 11.2498H292V22.4998H288.155L288.154 11.2498H280.461V30H288.155V26.2494H292V30H295.846V11.2498Z" fill="white"/>
<path fill-rule="evenodd" clip-rule="evenodd" d="M261.231 11.2498V30H276.615V11.2498H261.231ZM272.769 26.2504H268.924V14.9996H272.769V26.2504Z" fill="white"/>
<path d="M73.094 11.2497V29.9998H69.2479V14.9994H65.4027V29.9998H54.1558V26.2502H58.0018V11.2497H73.094Z" fill="white"/>
</svg>
